<svg width="14" height="6" viewBox="0 0 14 6" fill="none" xmlns="http://www.w3.org/2000/svg">
<path d="M13.5346 2.23447L12.0252 0.440722C11.894 0.287597 11.6534 0.265722 11.4784 0.396972C11.3252 0.528222 11.3034 0.768847 11.4346 0.943847L12.8565 2.62822H0.737744C0.518994 2.62822 0.343994 2.80322 0.343994 3.02197C0.343994 3.24072 0.518994 3.41572 0.737744 3.41572H12.8565L11.4346 5.1001C11.3034 5.25322 11.3252 5.49385 11.4784 5.64697C11.544 5.7126 11.6315 5.73447 11.719 5.73447C11.8284 5.73447 11.9377 5.69072 12.0034 5.60322L13.5127 3.80947C13.9065 3.32822 13.9065 2.67197 13.5346 2.23447Z" fill="#2D2A24"/>
</svg>
