<svg width="24" height="24" viewBox="0 0 36 36" fill="none" xmlns="http://www.w3.org/2000/svg">
<path d="M9.11251 35.325C8.77501 35.325 8.43751 35.2688 8.10001 35.1C7.20001 34.7063 6.63751 33.8063 6.63751 32.85V4.1625C6.63751 2.30625 8.15626 0.731251 10.0688 0.731251H25.9875C27.8438 0.731251 29.4188 2.25 29.4188 4.1625V32.7938C29.4188 33.75 28.8563 34.65 27.9563 35.0438C27.0563 35.4375 26.0438 35.2688 25.3125 34.65L18.9 29.025C18.3938 28.6875 17.7188 28.6875 17.2125 29.025L10.7438 34.65C10.2938 35.1 9.67501 35.325 9.11251 35.325ZM10.0688 2.7C9.28126 2.7 8.60626 3.31875 8.60626 4.1625V32.85C8.60626 33.1313 8.83126 33.2438 8.88751 33.3C9.00001 33.3563 9.22501 33.4125 9.45001 33.2438L15.975 27.5063C17.2125 26.55 18.9 26.55 20.1375 27.5063L20.25 27.5625L26.55 33.1313C26.775 33.3 27 33.2438 27.1125 33.1875C27.225 33.1313 27.3938 33.0188 27.3938 32.7375V4.10625C27.3938 3.31875 26.775 2.64375 25.9313 2.64375H10.0688V2.7Z" fill="#292723"/>
</svg>
