<svg width="24" height="24" viewBox="0 0 24 24" fill="none" xmlns="http://www.w3.org/2000/svg">
<path d="M15.3375 18.075C13.875 18.075 12.675 19.3125 12.675 20.8125C12.675 22.3125 13.875 23.55 15.3375 23.55C16.8 23.55 18 22.3125 18 20.8125C18.0375 19.3125 16.8375 18.075 15.3375 18.075ZM15.3375 22.2375C14.5875 22.2375 13.9875 21.6 13.9875 20.8125C13.9875 20.025 14.5875 19.3875 15.3375 19.3875C16.0875 19.3875 16.6875 20.025 16.6875 20.8125C16.725 21.6 16.0875 22.2375 15.3375 22.2375Z" fill="#163144"/>
<path d="M6.82501 18.075C5.36251 18.075 4.16251 19.3125 4.16251 20.8125C4.16251 22.3125 5.36251 23.55 6.82501 23.55C8.28751 23.55 9.4875 22.3125 9.4875 20.8125C9.525 19.3125 8.32501 18.075 6.82501 18.075ZM6.82501 22.2375C6.07501 22.2375 5.47501 21.6 5.47501 20.8125C5.47501 20.025 6.07501 19.3875 6.82501 19.3875C7.57501 19.3875 8.175 20.025 8.175 20.8125C8.2125 21.6 7.57501 22.2375 6.82501 22.2375Z" fill="#163144"/>
<path d="M21.675 0.487488H19.275C18.7125 0.487488 18.225 0.899988 18.15 1.46249L17.475 6.41249H2.7375C2.4 6.41249 2.1 6.56249 1.9125 6.82499C1.725 7.08749 1.65 7.42499 1.725 7.72499V7.76249L4.0125 14.85C4.125 15.3 4.5375 15.6375 5.0625 15.6375H16.125C16.95 15.6375 17.625 15.0375 17.7375 14.2125L19.4625 1.76249H21.7125C22.0875 1.76249 22.3875 1.46249 22.3875 1.08749C22.3875 0.712488 22.05 0.487488 21.675 0.487488ZM16.3875 14.025C16.35 14.175 16.2375 14.325 16.05 14.325H5.175L3.0375 7.72499H17.25L16.3875 14.025Z" fill="#163144"/>
</svg>
