<svg viewBox="0 0 24 25" fill="none" xmlns="http://www.w3.org/2000/svg"><path d="M18.975 6.387c-.75 0-1.5.188-2.138.563v-.075c0-2.738-2.175-4.95-4.874-4.95-2.7 0-4.875 2.212-4.875 4.95a4.287 4.287 0 0 0-2.026-.525A4.378 4.378 0 0 0 .75 10.737a4.359 4.359 0 0 0 3.9 4.35v6.038a1.92 1.92 0 0 0 1.912 1.912H17.4a1.92 1.92 0 0 0 1.913-1.912V15.05c2.212-.188 3.937-2.063 3.937-4.313 0-2.4-1.913-4.35-4.275-4.35ZM17.4 22.325H6.6a1.168 1.168 0 0 1-1.162-1.163v-1.875H18.6v1.875c0 .638-.525 1.163-1.2 1.163Zm1.575-7.988c-.225 0-.375.15-.375.375V18.5h-3.675v-2.7c0-.225-.15-.375-.375-.375s-.375.15-.375.375v2.7H9.862v-2.7c0-.225-.15-.375-.374-.375-.226 0-.375.15-.375.375v2.7H5.438v-3.788c0-.225-.15-.375-.375-.375-1.95 0-3.525-1.612-3.525-3.6 0-1.987 1.574-3.6 3.524-3.6.825 0 1.575.263 2.213.788.112.112.3.112.412.037.15-.075.225-.225.188-.375-.037-.225-.075-.45-.075-.712 0-2.325 1.837-4.2 4.125-4.2 2.287 0 4.125 1.875 4.125 4.2 0 .262-.038.562-.075.787a.377.377 0 0 0 .188.413c.15.075.3.075.45-.038a3.557 3.557 0 0 1 2.362-.9c1.95 0 3.525 1.613 3.525 3.6 0 1.988-1.575 3.6-3.525 3.6Z" fill="#D18357" stroke="#D18357" stroke-width="0.5"/></svg>