<svg width="28" height="28" viewBox="0 0 28 28" fill="none" xmlns="http://www.w3.org/2000/svg"><g opacity="0.6"><path d="M24.937 4.769H3.062A2.54 2.54 0 0 0 .525 7.306v13.432a2.54 2.54 0 0 0 2.537 2.537h21.875a2.54 2.54 0 0 0 2.538-2.537V7.306a2.54 2.54 0 0 0-2.538-2.537Zm0 1.531a.88.88 0 0 1 .57.175l-10.895 6.606a1.225 1.225 0 0 1-1.225 0L2.494 6.475c.175-.088.35-.175.568-.175h21.875Zm0 15.4H3.062a1.018 1.018 0 0 1-1.006-1.006V8.006l10.5 6.388c.438.262.919.393 1.4.393.481 0 .963-.13 1.4-.393l10.5-6.388v12.688c.088.569-.394 1.006-.919 1.006Z" fill="#292723"/></g></svg>