<svg viewBox="0 0 16 15" fill="none" xmlns="http://www.w3.org/2000/svg"><g clip-path="url(#clip0_250_3220)"><path d="m8 .523 1.53 4.4a1 1 0 0 0 .924.672l4.657.094L11.4 8.504a1 1 0 0 0-.353 1.086l1.349 4.46-3.824-2.662a1 1 0 0 0-1.142 0L3.605 14.05 4.954 9.59a1 1 0 0 0-.353-1.086L.889 5.689l4.657-.094a1 1 0 0 0 .924-.672L8 .523Z" stroke="#F1BA5A"/><path d="M8 11V1.5l-2 4-4.5.5L5 9c-.167 1.333-.6 4.1-1 4.5-.4.4 2.5-1.5 4-2.5Z" fill="#F1BA5A"/></g><defs><clipPath id="clip0_250_3220"><rect width="16" height="15" fill="white"/></clipPath></defs></svg>