<svg viewBox="0 0 36 36" fill="none" xmlns="http://www.w3.org/2000/svg"><path d="M35.381 10.8c-.056-1.8-.394-3.094-.787-4.275-.394-1.181-1.013-2.138-1.969-3.094-.956-.956-1.913-1.518-3.038-1.969-1.125-.45-2.362-.73-4.274-.787C23.343.562 22.78.562 18 .562s-5.287 0-7.2.057c-1.913.056-3.094.393-4.275.787-1.181.394-2.138 1.069-3.094 2.025-.956.957-1.575 1.913-1.969 3.094C1.012 7.65.732 8.887.675 10.8.619 12.712.562 13.219.562 18c0 4.781 0 5.288.057 7.2.056 1.913.393 3.094.787 4.275.394 1.181 1.013 2.137 1.969 3.094.956.956 1.969 1.575 3.094 1.968 1.125.394 2.362.732 4.275.788 1.912.112 2.418.112 7.2.112 4.781 0 5.287 0 7.2-.056 1.912-.056 3.094-.394 4.275-.787 1.181-.394 2.137-1.013 3.094-1.969.956-.956 1.575-1.969 1.968-3.094.394-1.125.731-2.362.788-4.275.056-1.8.056-2.362.056-7.143 0-4.782.112-5.4.056-7.313Zm-3.15 14.231c-.056 1.688-.394 2.588-.619 3.263-.337.787-.73 1.406-1.35 1.968-.618.62-1.18.957-1.968 1.35-.619.226-1.519.563-3.263.62h-6.975c-4.612 0-5.231 0-7.031-.057-1.688-.056-2.588-.394-3.263-.619-.787-.337-1.406-.731-1.968-1.35-.619-.619-.956-1.181-1.35-1.968-.225-.62-.563-1.52-.619-3.263V18c0-4.669 0-5.231.056-7.031.057-1.688.394-2.588.619-3.263.338-.787.731-1.406 1.294-1.969.619-.618 1.181-.956 1.969-1.293.618-.225 1.518-.563 3.262-.619 1.8-.056 2.362-.056 7.031-.056s5.232 0 7.031.056c1.688.056 2.588.394 3.263.619.787.337 1.406.731 1.969 1.293.619.62.956 1.182 1.35 1.97.225.618.562 1.518.619 3.262.056 1.8.056 2.362.056 7.031s-.056 5.231-.113 7.031Z" fill="#292723"/><path d="M18 9.056c-5.006 0-8.944 4.05-8.944 8.944 0 5.006 4.05 8.944 8.944 8.944 4.894 0 9-3.938 9-8.944s-3.994-8.944-9-8.944Zm0 14.794A5.845 5.845 0 0 1 12.15 18c0-3.206 2.644-5.85 5.85-5.85A5.81 5.81 0 0 1 23.85 18 5.81 5.81 0 0 1 18 23.85Z" fill="#292723"/><path d="M27.394 10.744a2.081 2.081 0 1 0 0-4.163 2.081 2.081 0 0 0 0 4.163Z" fill="#292723"/></svg>