<svg viewBox="0 0 36 16" fill="none" xmlns="http://www.w3.org/2000/svg">
<path d="M34.5367 5.97507L30.4867 1.13758C30.1492 0.743825 29.5305 0.687576 29.0805 1.02508C28.6867 1.36258 28.6305 1.98133 28.968 2.43133L32.8492 7.10007H8.38047C7.93047 5.41257 6.41172 4.17508 4.61172 4.17508C2.47422 4.17508 0.730469 5.91882 0.730469 8.05632C0.730469 10.1938 2.47422 11.9376 4.61172 11.9376C6.41172 11.9376 7.93047 10.7001 8.38047 9.01257H32.9055L28.968 13.6251C28.6305 14.0188 28.6867 14.6376 29.0805 15.0313C29.2492 15.2001 29.4742 15.2563 29.6992 15.2563C29.9805 15.2563 30.2617 15.1438 30.4305 14.9188L34.4805 10.0813C35.5492 8.84383 35.5492 7.15632 34.5367 5.97507ZM4.61172 9.91258C3.54297 9.91258 2.69922 9.06882 2.69922 8.00007C2.69922 6.93132 3.54297 6.08757 4.61172 6.08757C5.68047 6.08757 6.52422 6.93132 6.52422 8.00007C6.52422 9.06882 5.68047 9.91258 4.61172 9.91258Z" fill="#D18357"/>
</svg>
