<svg viewBox="0 0 241 155" fill="none" xmlns="http://www.w3.org/2000/svg"><g clip-path="url(#clip0_362_4764)"><path d="M66.356 50.543c-.046-.02-.091-.04-.137-.052-.013 0-.032.032-.045.052.045.013.084.039.13.045.013 0 .039-.032.058-.045h-.006Z" fill="#FEFEFE"/><path d="M103.829 0c.489.436.912.996 1.479 1.295 2.685 1.42 4.933 3.38 7.005 5.553 2.274 2.396 4.483 4.857 6.737 7.272 1.577 1.686 3.538 1.803 5.624 1.27 2.567-.658 5.134-1.322 7.695-2 1.01-.266 1.85 0 2.561.73 1.857 1.9 3.707 3.802 5.558 5.71a10.636 10.636 0 0 0 3.792 2.544c1.453.573 2.541 1.57 3.356 2.91.43.71.925 1.387 1.466 2.012 1.212 1.4 2.802 1.855 4.62 1.81 1.713-.046 3.427.032 5.141.084 1.335.04 2.541-.221 3.648-1.067 3.109-2.376 6.582-3.835 10.563-3.926 1.935-.045 3.46-.866 4.587-2.513.847-1.236 1.877-2.343 2.867-3.554 1.753 1.237 3.434 2.415 5.102 3.6 3.773 2.682 7.558 5.351 11.305 8.079a6.897 6.897 0 0 1 1.727 1.855c2.417 3.88 5.76 6.406 10.249 7.44.88.203 1.76.671 2.502 1.212 7.292 5.325 14.557 10.682 21.829 16.033.443.326.906.619 1.323.964.234.195.404.475.697.827-2.372-.137-4.542-.254-6.718-.397-4.099-.274-8.204-.567-12.302-.84-1.948-.13-3.779-.723-5.539-1.504-3.584-1.588-7.148-3.229-10.725-4.83-.899-.404-1.486-1.061-1.694-1.999a93.725 93.725 0 0 1-.958-4.654c-.228-1.27-.775-2.298-1.857-3.027-1.792-1.205-3.571-2.422-5.356-3.64-1.056-.716-1.219-1.275-.743-2.447.391-.95.287-1.523-.534-1.901-2.932-1.36-4.685-3.795-6.073-6.569-.254-.507-.515-1.022-.775-1.53-.02-.038-.066-.064-.163-.156a3544.913 3544.913 0 0 1-4.874 5.456c-1.349-1.595-3.037-1.38-4.822-1.107-3.623.553-7.109 1.471-10.399 3.131-1.395.71-2.92.638-4.431.326-.75-.157-1.518-.209-2.313-.235 1.068 1.309 2.43 2.162 3.948 2.774 1.949.78 3.988.937 6.06.846l1.792-.078c.775-.026 1.401.293 1.727.983.944 1.979 2.6 3.125 4.528 3.964.189.085.378.176.574.241 2.417.8 4.411 2.259 6.3 3.932 2.45 2.18 4.992 4.258 7.468 6.4a18.667 18.667 0 0 0 4.932 3.091c.971.417 1.896.938 2.828 1.478-1.57.241-3.095.04-4.548-.488-3.154-1.133-6.281-2.33-9.415-3.515-1.356-.515-2.737-.795-4.19-.755a7.741 7.741 0 0 1-4.372-1.153c-2.998-1.822-6.054-3.548-9.083-5.318-1.141-.664-1.382-.6-2.424.195-.802.612-1.669 1.172-2.574 1.595-.398.189-1.127.182-1.447-.065-1.257-.99-2.717-1.387-4.209-1.751-3.108-.749-5.93-2.2-8.757-3.633-1.734-.879-3.434-1.855-5.422-2.083-1.075-.124-2.078.091-2.99.664-4.757 2.988-9.559 5.898-14.225 9.016-2.437 1.628-4.626 3.62-6.926 5.442-.398.313-.802.619-1.199.925l-.196-.15c.281-.65.463-1.38.867-1.94 1.909-2.623 2.176-5.585 1.759-8.645-.397-2.923-.234-5.761.756-8.534.489-1.367.235-2.507-.658-3.62-2.033-2.539-4.02-5.11-6.014-7.682-1.629-2.102-3.682-3.665-6.053-4.81-1.03-.495-1.434-1.205-1.408-2.344.052-2.734.02-5.468.02-8.202v-.443l-.17-.078c-.664.846-1.342 1.673-1.987 2.532-3.714 4.902-7.826 9.466-12.107 13.873-.723.748-1.564 1.12-2.574 1.08-1.465-.058-2.352.58-3.12 1.856a15.434 15.434 0 0 1-2.978 3.554c-2.535 2.24-5.2 4.323-7.82 6.47-.078.066-.162.118-.443.307.3-1.276.535-2.357.808-3.437.28-1.107.71-2.181.867-3.3.254-1.785-.43-3.347-1.46-4.812-6.626 4.518-13.194 9.003-19.814 13.521 1.081 1.81 2.43 3.379 4.163 4.492 2.398 1.536 4.92 2.897 7.402 4.303.92.521 1.883.964 2.77 1.608a45.262 45.262 0 0 1-.913-.182c-7.721-1.673-15.436-3.36-23.164-5.006-1.511-.32-3.056-.58-4.594-.645-1.322-.052-2.502.632-3.61 1.328-4.626 2.897-9.258 5.788-13.878 8.697-1.414.886-3.01 1.114-4.6 1.374-2.411.397-4.829.755-7.24 1.165-.677.117-1.342.339-2.078.365.13-.11.247-.228.384-.326 4.51-3.222 8.98-6.503 13.547-9.634 2.091-1.432 4.43-2.493 6.314-4.27 3.03-2.858 6.138-5.625 9.22-8.425 1.14-1.041 1.147-1.028 2.398-.22.54.35 1.088.702 1.68 1.093l-.716.599c.28 0 .437.02.593 0 1.427-.196 2.724.202 3.981.84 1.486.755 1.7.624 2.932-.443 1.33-1.152 2.711-2.311 4.236-3.164 4.222-2.35 8.093-5.188 11.872-8.176 3.57-2.826 7.226-5.547 10.842-8.313.776-.593 1.584-.736 2.476-.306.632.306 1.264.599 1.975.93l-1.18 1.68.085.15c.508-.222 1.042-.39 1.512-.677 1.348-.834 2.723-.866 4.066-.091.899.514 1.622.423 2.43-.19 1.245-.937 2.548-1.802 3.838-2.681 1.714-1.165 3.147-2.61 4.528-4.16C96.453 7.851 100.076 3.938 103.673 0h.156Zm27.341 18.514c-2.476-.02-4.014 1.25-5.2 3.21a47.315 47.315 0 0 0 12.504 7.505 1.413 1.413 0 0 0-.273-.462c-1.564-1.816-3.128-3.62-5.083-5.045-1.466-1.074-2.261-2.487-1.896-4.388.046-.24-.033-.507-.059-.813l.007-.007Z" fill="#FFFDFC"/><path d="M66.356 50.542s-.039.053-.059.046c-.045-.006-.084-.026-.13-.046.013-.019.04-.058.046-.052.045.014.09.033.137.052h.006Z" fill="#FFFDFC"/><path d="M33.033 75.97c-.899-1.171-2.17-2.148-3.818-2.936-1.642-.787-3.297-1.178-4.965-1.178-.99 0-1.98.124-2.971.371-.99.248-1.89.632-2.704 1.146a6.435 6.435 0 0 0-1.994 2.024c-.521.834-.776 1.836-.776 3.002 0 1.08.222 2.005.678 2.766.45.768 1.069 1.42 1.857 1.96s1.746 1.009 2.874 1.419c1.127.404 2.365.807 3.714 1.217a94.811 94.811 0 0 1 4.763 1.686 18.576 18.576 0 0 1 4.528 2.5c1.375 1.035 2.496 2.337 3.376 3.912.88 1.576 1.316 3.535 1.316 5.873 0 2.564-.476 4.804-1.42 6.711-.945 1.914-2.21 3.496-3.78 4.759-1.577 1.256-3.42 2.207-5.538 2.832-2.118.631-4.346.944-6.686.944-3.108 0-6.144-.573-9.115-1.719-2.972-1.146-5.402-2.845-7.292-5.097l6.08-5.67c1.172 1.621 2.736 2.903 4.691 3.847 1.961.944 3.883 1.419 5.773 1.419.99 0 2-.124 3.037-.371a8.078 8.078 0 0 0 2.801-1.25 7.018 7.018 0 0 0 2.027-2.194c.515-.878.775-1.966.775-3.274 0-1.309-.293-2.305-.88-3.138-.586-.833-1.374-1.55-2.365-2.161-.99-.606-2.163-1.133-3.512-1.589l-4.255-1.419c-1.44-.449-2.88-.99-4.32-1.62a14.346 14.346 0 0 1-3.883-2.494c-1.147-1.035-2.085-2.305-2.802-3.815-.723-1.504-1.082-3.385-1.082-5.637 0-2.428.509-4.518 1.519-6.276a13.512 13.512 0 0 1 3.987-4.355c1.642-1.146 3.512-1.999 5.604-2.565a24.61 24.61 0 0 1 6.386-.846c2.43 0 4.9.43 7.395 1.282 2.502.853 4.672 2.136 6.516 3.848l-5.539 6.073v.013Z" fill="#FFFDFC"/><path d="M58.022 65.984h8.51v47.776h-8.51V65.984Z" fill="#FFFDFC"/><path d="M97.333 73.406H82.678v-7.422h37.825v7.422h-14.654v40.354h-8.51V73.406h-.006Z" fill="#FFFDFC"/><path d="M136.643 65.984h8.51v20.65h.202l19.991-20.65h11.481l-22.356 22.069 23.842 25.707h-11.957l-21.007-23.956h-.202v23.956h-8.51V65.984h.006Z" fill="#FFFDFC"/><path d="M207.967 65.984h7.363l20.603 47.776h-9.728l-4.457-10.93h-20.734l-4.32 10.93h-9.526l20.805-47.776h-.006ZM218.77 95.54l-7.363-19.432-7.5 19.432h14.863Z" fill="#FFFDFC"/><path d="M13.766 136.434a2.97 2.97 0 0 0-1.095-.846 3.092 3.092 0 0 0-1.303-.313c-.215 0-.437.02-.658.059-.222.039-.424.11-.6.221a1.607 1.607 0 0 0-.45.417c-.123.169-.182.39-.182.657 0 .228.046.417.144.573.098.156.234.287.417.397.182.117.404.222.658.313.254.097.54.195.854.293.456.149.931.319 1.426.501.496.182.945.43 1.35.729a3.84 3.84 0 0 1 1.01 1.133c.266.455.397 1.009.397 1.679 0 .775-.144 1.439-.43 2.005a3.998 3.998 0 0 1-1.147 1.393 4.972 4.972 0 0 1-1.655.814 7.02 7.02 0 0 1-1.922.267 8.01 8.01 0 0 1-2.796-.501c-.899-.332-1.648-.814-2.241-1.432l2.13-2.168a3.98 3.98 0 0 0 1.304 1.015c.54.274 1.075.41 1.603.41.24 0 .475-.026.703-.078.228-.052.43-.13.6-.247.17-.117.306-.267.41-.456.105-.188.15-.416.15-.683 0-.267-.065-.469-.189-.645a1.801 1.801 0 0 0-.54-.481 4.4 4.4 0 0 0-.874-.398c-.352-.117-.742-.247-1.186-.39a11.07 11.07 0 0 1-1.264-.495 4.266 4.266 0 0 1-1.1-.729 3.462 3.462 0 0 1-.783-1.081c-.195-.423-.293-.937-.293-1.549 0-.749.15-1.387.456-1.92.306-.534.704-.97 1.199-1.309a5.03 5.03 0 0 1 1.675-.749 7.75 7.75 0 0 1 1.883-.24c.762 0 1.537.136 2.326.416.788.28 1.486.69 2.079 1.237l-2.073 2.181h.007Z" fill="#FFFDFC"/><path d="M21.696 146.388v-13.443h9.044v2.734h-5.91v2.545h5.59v2.604h-5.59v2.793h6.255v2.773h-9.39v-.006Z" fill="#FFFDFC"/><path d="m46.15 146.388-1.042-2.637H39.9l-.99 2.637h-3.532l5.643-13.443h3.154l5.59 13.443H46.15Zm-3.61-9.856-1.713 4.615h3.381l-1.674-4.615h.006Z" fill="#FFFDFC"/><path d="M57.898 135.712v2.773h5.206v2.675h-5.206v5.221h-3.212v-13.443h8.855v2.774h-5.643Z" fill="#FFFDFC"/><path d="M83.46 139.604c0 1.062-.182 2.038-.554 2.917a6.606 6.606 0 0 1-1.53 2.259 6.758 6.758 0 0 1-2.327 1.451c-.9.339-1.877.515-2.926.515-1.049 0-2.026-.17-2.919-.515a6.9 6.9 0 0 1-2.32-1.451 6.699 6.699 0 0 1-1.53-2.259c-.366-.879-.555-1.849-.555-2.917 0-1.067.183-2.044.554-2.916a6.418 6.418 0 0 1 1.532-2.213 6.894 6.894 0 0 1 2.32-1.407 8.464 8.464 0 0 1 2.918-.494c1.056 0 2.027.162 2.926.494a6.86 6.86 0 0 1 2.326 1.407 6.44 6.44 0 0 1 1.531 2.213c.365.866.554 1.836.554 2.916Zm-3.48 0c0-.579-.097-1.126-.286-1.634a3.972 3.972 0 0 0-.788-1.302 3.697 3.697 0 0 0-1.219-.852 3.854 3.854 0 0 0-1.57-.313 3.77 3.77 0 0 0-2.776 1.165 3.607 3.607 0 0 0-.788 1.302 4.784 4.784 0 0 0-.274 1.634c0 .586.098 1.166.287 1.68.189.514.456.95.788 1.321a3.58 3.58 0 0 0 1.206.866c.469.209.99.313 1.557.313s1.088-.104 1.557-.313c.47-.208.873-.494 1.219-.866.345-.364.606-.807.801-1.321a4.835 4.835 0 0 0 .287-1.68Z" fill="#FFFDFC"/><path d="M103.432 139.604c0 1.062-.183 2.038-.554 2.917a6.604 6.604 0 0 1-1.532 2.259 6.75 6.75 0 0 1-2.326 1.451c-.899.339-1.876.515-2.925.515-1.05 0-2.027-.17-2.92-.515a6.9 6.9 0 0 1-2.32-1.451 6.7 6.7 0 0 1-1.53-2.259c-.365-.879-.554-1.849-.554-2.917 0-1.067.182-2.044.554-2.916a6.42 6.42 0 0 1 1.53-2.213 6.894 6.894 0 0 1 2.32-1.407 8.464 8.464 0 0 1 2.92-.494c1.055 0 2.026.162 2.925.494.9.332 1.675.801 2.326 1.407.652.605 1.16 1.347 1.532 2.213.365.866.554 1.836.554 2.916Zm-3.48 0c0-.579-.098-1.126-.287-1.634a3.972 3.972 0 0 0-.788-1.302 3.698 3.698 0 0 0-1.218-.852 3.854 3.854 0 0 0-1.57-.313 3.77 3.77 0 0 0-2.777 1.165 3.607 3.607 0 0 0-.788 1.302 4.784 4.784 0 0 0-.274 1.634c0 .586.098 1.166.287 1.68.189.514.456.95.788 1.321a3.58 3.58 0 0 0 1.206.866c.469.209.99.313 1.557.313s1.088-.104 1.557-.313c.47-.208.874-.494 1.219-.866.345-.364.606-.807.801-1.321a4.835 4.835 0 0 0 .287-1.68Z" fill="#FFFDFC"/><path d="M121.943 139.624c0 1.178-.221 2.194-.658 3.047a6.242 6.242 0 0 1-1.727 2.109 7.134 7.134 0 0 1-2.423 1.217c-.9.261-1.812.391-2.737.391h-5.017v-13.443h4.867c.951 0 1.89.11 2.815.332a7.024 7.024 0 0 1 2.469 1.1c.724.514 1.304 1.198 1.747 2.064.443.865.664 1.927.664 3.189v-.006Zm-3.381 0c0-.762-.124-1.387-.372-1.888a3.22 3.22 0 0 0-.99-1.198 3.993 3.993 0 0 0-1.408-.638 7.123 7.123 0 0 0-1.622-.188h-1.616v7.863h1.538c.58 0 1.14-.065 1.681-.201a3.942 3.942 0 0 0 1.427-.658c.41-.306.743-.709.99-1.217.248-.508.372-1.133.372-1.882v.007Z" fill="#FFFDFC"/><path d="m148.645 146.388.079-9.511h-.059l-3.499 9.511h-2.281l-3.401-9.511h-.059l.079 9.511h-3.063v-13.443h4.626l3.063 8.619h.078l2.932-8.619h4.698v13.443h-3.193Z" fill="#FFFDFC"/><path d="m167.516 146.388-1.043-2.637h-5.206l-.99 2.637h-3.532l5.643-13.443h3.153l5.591 13.443H167.516Zm-3.61-9.856-1.707 4.615h3.381l-1.674-4.615Z" fill="#FFFDFC"/><path d="m183.258 146.388-2.919-5.338h-1.108v5.338h-3.173v-13.443h5.135c.645 0 1.277.065 1.889.202a4.957 4.957 0 0 1 1.655.677c.489.319.88.735 1.167 1.25.293.52.436 1.165.436 1.939 0 .912-.248 1.68-.743 2.298-.495.619-1.179 1.062-2.052 1.328l3.518 5.755h-3.798l-.007-.006Zm-.13-9.322c0-.319-.065-.573-.202-.769a1.38 1.38 0 0 0-.515-.455 2.352 2.352 0 0 0-.704-.222 5.114 5.114 0 0 0-.756-.058h-1.739v3.131h1.544c.267 0 .541-.019.821-.065.28-.046.534-.124.762-.234a1.48 1.48 0 0 0 .567-.495c.144-.215.222-.495.222-.833Z" fill="#FFFDFC"/><path d="m200.662 146.388-4.998-6.191h-.039v6.191h-3.173v-13.443h3.173v5.468h.059l4.809-5.468h4.066l-5.799 6.191 6.138 7.252h-4.236Z" fill="#FFFDFC"/><path d="M209.765 146.388v-13.443h9.044v2.734h-5.91v2.545h5.591v2.604h-5.591v2.793h6.255v2.773h-9.389v-.006Z" fill="#FFFDFC"/><path d="M230.863 135.712v10.669h-3.251v-10.669h-3.799v-2.774h10.849v2.774h-3.799Z" fill="#FFFDFC"/></g><defs><clipPath id="clip0_362_4764"><rect width="230.853" height="146.746" fill="white" transform="translate(5.07373)"/></clipPath></defs></svg>