<svg width="44" height="18" viewBox="0 0 44 18" fill="none" xmlns="http://www.w3.org/2000/svg">
<path d="M42.2123 6.52496L37.2623 0.612456C36.8498 0.131206 36.0936 0.0624572 35.5436 0.474957C35.0623 0.887457 34.9936 1.64371 35.4061 2.19371L40.1498 7.89996H10.2436C9.69355 5.83746 7.8373 4.32496 5.6373 4.32496C3.0248 4.32496 0.893555 6.4562 0.893555 9.0687C0.893555 11.6812 3.0248 13.8125 5.6373 13.8125C7.8373 13.8125 9.69355 12.3 10.2436 10.2375H40.2186L35.4061 15.875C34.9936 16.3562 35.0623 17.1125 35.5436 17.5937C35.7498 17.8 36.0248 17.8687 36.2998 17.8687C36.6436 17.8687 36.9873 17.7312 37.1936 17.4562L42.1436 11.5437C43.4498 10.0312 43.4498 7.96871 42.2123 6.52496ZM5.6373 11.3375C4.33105 11.3375 3.2998 10.3062 3.2998 8.99996C3.2998 7.69371 4.33105 6.66246 5.6373 6.66246C6.94355 6.66246 7.9748 7.69371 7.9748 8.99996C7.9748 10.3062 6.94355 11.3375 5.6373 11.3375Z" fill="#FFFDFC"/>
</svg>
