<svg viewBox="0 0 24 24" fill="none" xmlns="http://www.w3.org/2000/svg"><g opacity="0.6"><path d="M21.75 2.738H2.25a1.8 1.8 0 0 0-1.8 1.8V19.5a1.8 1.8 0 0 0 1.8 1.8h19.5a1.8 1.8 0 0 0 1.8-1.8V4.538a1.8 1.8 0 0 0-1.8-1.8ZM2.25 4.05h19.5c.263 0 .488.225.488.488v2.475H1.8V4.538c0-.263.188-.488.45-.488Zm19.5 15.9H2.25a.496.496 0 0 1-.487-.488V8.325H22.2v11.137c.038.263-.187.488-.45.488Z" fill="#163144"/><path d="M11.475 12.713h2.1c.375 0 .675-.3.675-.675 0-.376-.3-.675-.675-.675h-.6V11.1c0-.375-.3-.675-.675-.675-.375 0-.675.3-.675.675v.263h-.187A1.68 1.68 0 0 0 9.75 13.05v.112c0 .938.75 1.688 1.688 1.688h1.05c.225 0 .375.15.375.375v.113c0 .225-.15.375-.375.375h-2.1c-.375 0-.675.3-.675.675 0 .374.3.674.675.674h1.2v.263c0 .375.3.675.675.675.375 0 .675-.3.675-.675v-.337a1.687 1.687 0 0 0 1.237-1.613v-.113a1.68 1.68 0 0 0-1.687-1.687h-1.05c-.225 0-.375-.15-.375-.375v-.112c.037-.225.187-.375.412-.375Z" fill="#163144"/></g></svg>