<svg width="39" height="21" viewBox="0 0 39 21" fill="none" xmlns="http://www.w3.org/2000/svg"><mask id="path-1-inside-1_240_27347" fill="white"><path d="M0 11a3.569 3.569 0 0 1 3.974-3.546l5.912.676c2.729.312 5.488.234 8.195-.23L21 7.4v7.2l-2.919-.5a29.008 29.008 0 0 0-8.195-.23l-5.912.676A3.569 3.569 0 0 1 0 11Z"/></mask><path d="M21 7.4h1.5V5.621l-1.753.3L21 7.4Zm0 7.2-.253 1.478 1.753.301V14.6H21Zm-2.919-6.7-.253-1.478.253 1.478Zm-8.195 5.97-.17-1.49.17 1.49ZM19.5 7.4v7.2h3V7.4h-3ZM3.804 8.944l5.912.676.34-2.98-5.912-.676-.34 2.98Zm14.53.435 2.92-.5-.507-2.957-2.92.5.507 2.957Zm2.92 3.743-2.92-.5-.506 2.956 2.919.5.506-2.956ZM9.715 12.38l-5.912.675.34 2.981 5.912-.676-.34-2.98Zm0-2.76c2.87.328 5.772.247 8.618-.241l-.506-2.957c-2.567.44-5.184.513-7.771.218l-.341 2.98ZM-1.5 11a5.069 5.069 0 0 0 5.644 5.036l-.34-2.98A2.069 2.069 0 0 1 1.5 11h-3Zm19.834 1.621a30.505 30.505 0 0 0-8.618-.241l.34 2.98a27.507 27.507 0 0 1 7.772.218l.506-2.957ZM1.5 11a2.069 2.069 0 0 1 2.304-2.056l.34-2.98A5.069 5.069 0 0 0-1.5 11h3Z" fill="#163144" mask="url(#path-1-inside-1_240_27347)"/><circle cx="28.5" cy="10.5" r="9.75" fill="white" stroke="#163144" stroke-width="1.5"/><circle cx="28.5" cy="10.5" r="6.75" fill="white" stroke="#163144" stroke-width="1.5"/><circle cx="4" cy="11" r="1" fill="#163144"/></svg>