<svg viewBox="0 0 36 36" fill="none" xmlns="http://www.w3.org/2000/svg"><path d="M18.344.457C11.13.457 4 5.267 4 13.05c0 4.95 2.784 7.762 4.472 7.762.696 0 1.097-1.94 1.097-2.489 0-.654-1.667-2.046-1.667-4.767 0-5.653 4.304-9.66 9.872-9.66 4.788 0 8.332 2.72 8.332 7.72 0 3.733-1.497 10.736-6.349 10.736-1.75 0-3.248-1.265-3.248-3.08 0-2.657 1.856-5.23 1.856-7.973 0-4.654-6.602-3.81-6.602 1.814 0 1.181.147 2.49.675 3.565-.97 4.177-2.954 10.4-2.954 14.703 0 1.328.19 2.636.317 3.965.239.267.12.24.485.106 3.544-4.852 3.417-5.801 5.02-12.15.865 1.645 3.101 2.53 4.873 2.53C27.646 25.833 31 18.556 31 11.996 31 5.013 24.967.457 18.344.457Z" fill="#292723"/></svg>