<svg viewBox="0 0 29 29" fill="none" xmlns="http://www.w3.org/2000/svg"><path d="M25.104 6.525h-.227V2.72A2.175 2.175 0 0 0 22.702.544H6.3a2.175 2.175 0 0 0-2.175 2.175v3.806h-.226A2.175 2.175 0 0 0 1.723 8.7v6.842c.045 1.179.997 2.13 2.175 2.13h.226v8.61c0 1.178.952 2.174 2.175 2.174h16.403a2.175 2.175 0 0 0 2.175-2.175v-8.609h.227a2.176 2.176 0 0 0 2.175-2.175V8.7c-.045-1.178-.997-2.175-2.175-2.175ZM5.71 2.72a.6.6 0 0 1 .59-.59h16.402a.6.6 0 0 1 .59.59v3.806H5.71V2.72ZM23.291 26.28a.6.6 0 0 1-.589.59H6.3a.6.6 0 0 1-.589-.59v-8.609h17.536v8.61h.045Zm2.357-10.739a.6.6 0 0 1-.59.59H3.899a.6.6 0 0 1-.59-.59V8.7a.6.6 0 0 1 .59-.589H25.104a.6.6 0 0 1 .589.59v6.841h-.045Z" fill="#163144"/><path d="M10.968 21.252h7.023a.812.812 0 0 0 .816-.815.812.812 0 0 0-.816-.816h-7.023a.812.812 0 0 0-.816.816c0 .453.408.815.816.815Z" fill="#163144"/><path d="M10.968 24.831h7.023a.812.812 0 0 0 .816-.815.812.812 0 0 0-.816-.816h-7.023a.812.812 0 0 0-.816.816c0 .453.408.815.816.815Z" fill="#163144"/><path d="M22.885 12.098a1.178 1.178 0 1 0 0-2.356 1.178 1.178 0 0 0 0 2.356Z" fill="#163144"/></svg>