<svg viewBox="0 0 24 24" fill="none" xmlns="http://www.w3.org/2000/svg">
<path d="M12 0.487488C5.625 0.487488 0.487503 5.62499 0.487503 12C0.487503 18.375 5.625 23.55 12 23.55C18.375 23.55 23.55 18.375 23.55 12C23.55 5.62499 18.375 0.487488 12 0.487488ZM12 22.2375C6.375 22.2375 1.8 17.625 1.8 12C1.8 6.37499 6.375 1.79999 12 1.79999C17.625 1.79999 22.2375 6.37499 22.2375 12C22.2375 17.625 17.625 22.2375 12 22.2375Z" fill="#163144"/>
<path d="M12.6375 4.46248C11.55 4.27498 10.4625 4.57498 9.675 5.24998C8.85 5.92498 8.3625 6.93748 8.3625 8.02498C8.3625 8.43748 8.4375 8.84998 8.5875 9.22498C8.7 9.56248 9.075 9.74998 9.4125 9.63748C9.75 9.52498 9.9375 9.14998 9.825 8.81248C9.75 8.54998 9.675 8.32498 9.675 8.02498C9.675 7.34998 9.975 6.71248 10.5 6.26248C11.025 5.81248 11.7 5.62498 12.4125 5.77498C13.35 5.92498 14.1 6.71248 14.25 7.61248C14.4375 8.69998 13.875 9.74998 12.8625 10.1625C11.925 10.5375 11.325 11.475 11.325 12.5625V14.9625C11.325 15.3375 11.625 15.6375 12 15.6375C12.375 15.6375 12.675 15.3375 12.675 14.9625V12.5625C12.675 12.0375 12.975 11.55 13.3875 11.4C14.9625 10.7625 15.8625 9.11248 15.5625 7.38748C15.3 5.92498 14.1 4.72498 12.6375 4.46248Z" fill="#163144"/>
<path d="M12.0375 17.55H11.925C11.55 17.55 11.25 17.85 11.25 18.225C11.25 18.6 11.55 18.9 11.925 18.9H12.0375C12.4125 18.9 12.7125 18.6 12.7125 18.225C12.7125 17.85 12.4125 17.55 12.0375 17.55Z" fill="#163144"/>
</svg>
