<svg viewBox="0 0 24 25" fill="none" xmlns="http://www.w3.org/2000/svg"><path d="m23.177 17.638-2.813-10.05c-.225-.863-1.05-1.463-1.912-1.463h-3.563V3.013h7.125c.225 0 .375-.15.375-.375s-.15-.375-.375-.375H2.027c-.225 0-.375.15-.375.375s.15.375.375.375h7.125v3.112H5.589c-.9 0-1.687.6-1.912 1.463l-2.85 10.05c-.188.6-.038 1.237.337 1.762.375.488.938.788 1.538.788v2.175c0 .225.15.375.375.375s.375-.15.375-.375v-2.175h17.1v2.175c0 .225.15.375.375.375s.375-.15.375-.375v-2.175c.6 0 1.162-.3 1.537-.788a1.957 1.957 0 0 0 .338-1.762ZM9.864 3.013h4.238v3.112H9.864V3.013ZM22.24 18.95c-.225.3-.6.488-1.012.488H2.739c-.412 0-.75-.188-1.012-.488-.225-.3-.3-.712-.225-1.087l2.812-10.05c.188-.563.675-.938 1.238-.938h12.9c.562 0 1.05.375 1.2.9l2.812 10.05c.113.413.038.825-.225 1.125Z" fill="#D18357" stroke="#D18357" stroke-width="0.5"/><path d="M12.002 9.2a3.897 3.897 0 0 0-3.9 3.9c0 2.138 1.725 3.9 3.9 3.9s3.9-1.762 3.9-3.9c0-2.137-1.725-3.9-3.9-3.9Zm.375 7.05v-2.137c0-.225-.15-.375-.375-.375s-.375.15-.375.375v2.137a3.164 3.164 0 0 1-2.775-3.15 3.169 3.169 0 0 1 3.15-3.15 3.169 3.169 0 0 1 3.15 3.15c0 1.613-1.2 2.963-2.775 3.15Z" fill="#D18357" stroke="#D18357" stroke-width="0.5"/></svg>