<svg width="24" height="22" viewBox="0 0 24 22" fill="none" xmlns="http://www.w3.org/2000/svg">
<path d="M23.2875 20.375L16.725 15.05C17.925 13.475 18.6 11.5625 18.6 9.53751C18.6 7.10001 17.6625 4.85001 15.9375 3.12501C12.4125 -0.399988 6.675 -0.399988 3.1125 3.12501C1.425 4.81251 0.487503 7.10001 0.487503 9.50001C0.487503 11.9375 1.425 14.1875 3.15 15.9125C4.9125 17.675 7.2375 18.575 9.5625 18.575C11.85 18.575 14.1 17.7125 15.8625 16.025L22.5 21.3875C22.6125 21.5 22.7625 21.5375 22.9125 21.5375C23.1 21.5375 23.2875 21.4625 23.4375 21.3125C23.625 21.0125 23.5875 20.6 23.2875 20.375ZM4.05 15.0125C2.5875 13.55 1.8 11.6 1.8 9.50001C1.8 7.40001 2.5875 5.48751 4.0875 4.02501C5.5875 2.52501 7.575 1.77501 9.5625 1.77501C11.55 1.77501 13.5375 2.52501 15.0375 4.02501C16.5 5.48751 17.325 7.43751 17.325 9.50001C17.325 11.5625 16.4625 13.55 15 15.0125C12 18.0125 7.0875 18.0125 4.05 15.0125Z" fill="#163144"/>
</svg>
