<svg viewBox="0 0 28 28" fill="none" xmlns="http://www.w3.org/2000/svg"><path d="M21.7 9.406a4.714 4.714 0 0 0-3.937 2.144l-7.438-4.113c.35-.656.57-1.444.57-2.231C10.937 2.625 8.837.568 6.3.568c-2.537 0-4.68 2.057-4.68 4.638a4.64 4.64 0 0 0 4.637 4.637 4.645 4.645 0 0 0 3.106-1.18l7.831 4.287c-.087.35-.131.7-.131 1.093 0 .963.262 1.838.787 2.538l-7.087 4.9A4.66 4.66 0 0 0 6.3 18.156a4.64 4.64 0 0 0-4.637 4.637c0 2.538 2.1 4.638 4.637 4.638 2.407 0 4.42-1.881 4.638-4.244l7.962-5.512c.788.612 1.75.962 2.844.962A4.64 4.64 0 0 0 26.382 14c0-2.538-2.1-4.594-4.682-4.594ZM6.3 8.312a3.118 3.118 0 0 1-3.106-3.106C3.194 3.5 4.594 2.1 6.3 2.1c1.707 0 3.107 1.4 3.107 3.106S8.007 8.312 6.3 8.312Zm0 17.631a3.118 3.118 0 0 1-3.106-3.106c0-1.706 1.4-3.106 3.106-3.106 1.707 0 3.107 1.4 3.107 3.106s-1.4 3.106-3.107 3.106Zm15.4-8.793a3.118 3.118 0 0 1-3.106-3.107c0-1.706 1.4-3.106 3.106-3.106 1.707 0 3.107 1.4 3.107 3.106.043 1.707-1.357 3.107-3.107 3.107Z" fill="#163144"/></svg>