<svg width="27" height="26" viewBox="0 0 27 26" fill="none" xmlns="http://www.w3.org/2000/svg"><circle cx="13.6738" cy="13" r="13" fill="#163144"/><path d="M16.4 10.273a.808.808 0 0 1 0 1.144l-4.308 4.31a.81.81 0 0 1-1.145-1.145l4.31-4.309a.809.809 0 0 1 1.144 0Zm-4.95 7.25a1.63 1.63 0 0 1-2.3 0 1.629 1.629 0 0 1 0-2.3l3.054-3.05A3.125 3.125 0 0 0 9.253 13L8.09 14.163a3.127 3.127 0 1 0 4.421 4.421l1.163-1.163c.8-.8 1.076-1.926.828-2.951l-3.051 3.054Zm3.387-10.108L13.674 8.58a3.12 3.12 0 0 0-.828 2.95l3.052-3.053a1.628 1.628 0 0 1 2.301 2.301l-3.053 3.052a3.123 3.123 0 0 0 2.95-.829l1.162-1.163a3.127 3.127 0 0 0-4.421-4.422Z" fill="white"/></svg>