<svg width="27" height="26" viewBox="0 0 27 26" fill="none" xmlns="http://www.w3.org/2000/svg"><path d="M13.674 0c-7.18 0-13 5.82-13 13s5.82 13 13 13 13-5.82 13-13-5.82-13-13-13Zm0 20.583a7.575 7.575 0 0 1-2.246-.338c.31-.503.772-1.329.943-1.988l.473-1.802c.248.472.97.87 1.738.87 2.287 0 3.935-2.102 3.935-4.716 0-2.505-2.045-4.379-4.675-4.379-3.273 0-5.01 2.196-5.01 4.588 0 1.113.592 2.497 1.54 2.938.143.067.22.037.253-.102l.21-.859a.227.227 0 0 0-.054-.219c-.312-.379-.564-1.078-.564-1.73 0-1.672 1.266-3.291 3.424-3.291 1.864 0 3.168 1.27 3.168 3.085 0 2.052-1.037 3.472-2.384 3.472-.745 0-1.302-.615-1.123-1.37.214-.902.629-1.874.629-2.525 0-.582-.312-1.068-.96-1.068-.76 0-1.374.787-1.374 1.841 0 .673.229 1.127.229 1.127s-.752 3.178-.89 3.769c-.154.655-.093 1.575-.027 2.175a7.584 7.584 0 1 1 2.765.522Z" fill="#163144"/></svg>