<svg viewBox="0 0 24 24" fill="none" xmlns="http://www.w3.org/2000/svg"><g opacity="0.6"><path d="M22.575 5.475c0-.038-.037-.038-.037-.075a2.608 2.608 0 0 0-1.05-.863L13.125.712a2.544 2.544 0 0 0-2.213 0l-8.4 3.825a2.608 2.608 0 0 0-1.05.863c-.037.037-.075.075-.075.112 0 0 0 .038-.037.038a2.64 2.64 0 0 0-.413 1.425v9.713C.938 17.7 1.5 18.6 2.4 19.05l8.4 4.2c.375.188.787.3 1.2.3.412 0 .825-.113 1.2-.3l8.363-4.2c.9-.45 1.462-1.35 1.462-2.363V6.976c0-.563-.15-1.05-.45-1.5ZM11.438 1.912c.187-.075.374-.112.562-.112.188 0 .375.037.563.112L20.85 5.7l-3.638 1.762-8.55-4.275 2.775-1.275Zm.562 8.1L3.15 5.7l3.975-1.838 8.625 4.313L12 10.012ZM3.037 17.85a1.38 1.38 0 0 1-.75-1.2V6.975c0-.075 0-.15.038-.225l9.038 4.425v10.912L3.038 17.85Zm18.675-1.2c0 .525-.3.975-.75 1.2l-8.325 4.2V11.175L16.5 9.3v3.525c0 .375.3.675.675.675.375 0 .675-.3.675-.675V8.662l3.862-1.912c0 .075.038.15.038.225v9.675h-.038Z" fill="#163144"/></g></svg>