<svg viewBox="0 0 15 15" fill="none" xmlns="http://www.w3.org/2000/svg"><g clip-path="url(#clip0_209_3992)"><path d="M12.052 1.994H9.93v-.788a.83.83 0 0 0-.832-.83H6.823c-.459.021-.83.371-.83.83v.788H3.87a.83.83 0 0 0-.83.831v1.597c0 .219.174.394.393.394h.328v7.416c0 .896.744 1.64 1.64 1.64h5.141c.897 0 1.64-.744 1.64-1.64v-7.46h.329a.392.392 0 0 0 .394-.394V2.781a.858.858 0 0 0-.853-.787Zm-5.294-.788c0-.021.022-.065.065-.065h2.275c.022 0 .066.022.066.065v.788H6.758v-.788ZM3.827 2.803c0-.022.021-.065.065-.065H12.073c.022 0 .066.022.066.065v1.203H3.827V2.803Zm7.568 9.407a.878.878 0 0 1-.875.875H5.402a.878.878 0 0 1-.875-.875V4.772h6.89v7.438h-.022Z" fill="#163144"/><path d="M7.961 10.678a.392.392 0 0 0 .394-.394V7.42a.392.392 0 0 0-.394-.394.392.392 0 0 0-.394.394v2.887c.022.22.175.372.394.372Z" fill="#163144"/><path d="M9.798 10.678a.392.392 0 0 0 .394-.394V7.42a.392.392 0 0 0-.394-.394.392.392 0 0 0-.394.394v2.887a.402.402 0 0 0 .394.372Z" fill="#163144"/><path d="M6.123 10.678a.392.392 0 0 0 .394-.394V7.42a.392.392 0 0 0-.394-.394.392.392 0 0 0-.394.394v2.887c0 .22.175.372.394.372Z" fill="#163144"/></g><defs><clipPath id="clip0_209_3992"><rect width="14" height="14" fill="white" transform="translate(0.960938 0.112793)"/></clipPath></defs></svg>