<svg viewBox="0 0 36 36" fill="none" xmlns="http://www.w3.org/2000/svg"><path d="M11.419 32.288c13.275 0 20.475-10.97 20.475-20.475 0-.226 0-.62-.056-.957a15.038 15.038 0 0 0 3.6-3.712c-1.35.618-2.7.956-4.107 1.125 1.519-.9 2.644-2.307 3.15-3.994-1.406.787-2.869 1.406-4.612 1.744-1.35-1.407-3.15-2.307-5.232-2.307-3.993 0-7.256 3.263-7.256 7.257 0 .562.056 1.125.169 1.687-5.794-.394-11.081-3.262-14.681-7.594-.619 1.125-.957 2.307-.957 3.6 0 2.532 1.294 4.67 3.263 5.963a7.825 7.825 0 0 1-3.262-.9v.056c0 3.431 2.474 6.413 5.737 7.088a7.151 7.151 0 0 1-1.8.225c-.45 0-.956-.056-1.35-.169.956 2.869 3.6 4.95 6.75 5.006-2.475 1.913-5.569 3.094-8.887 3.094-.675.113-1.238 0-1.8-.056 3.037 2.137 6.806 3.319 10.856 3.319Z" fill="#292723"/></svg>