<svg width="20" height="20" viewBox="0 0 20 20" fill="none" xmlns="http://www.w3.org/2000/svg"><path fill-rule="evenodd" clip-rule="evenodd" d="M.91 11c.501 0 .908.403.908.9v6.3h16.364v-6.3c0-.497.407-.9.909-.9s.909.403.909.9V20H0v-8.1c0-.497.407-.9.91-.9Z" fill="white"/><path fill-rule="evenodd" clip-rule="evenodd" d="M9.328.275a.96.96 0 0 1 1.344 0l6.05 5.966a.928.928 0 0 1 0 1.326.96.96 0 0 1-1.345 0L10.951 3.2v10.861A.944.944 0 0 1 10 15a.944.944 0 0 1-.95-.938V3.201L4.622 7.567a.96.96 0 0 1-1.345 0 .928.928 0 0 1 0-1.326L9.328.275Z" fill="white"/></svg>