<svg viewBox="0 0 24 24" fill="none" xmlns="http://www.w3.org/2000/svg">
<path d="M12 13.65C15.075 13.65 17.5875 11.1375 17.5875 8.0625C17.5875 4.9875 15.075 2.4375 12 2.4375C8.92501 2.4375 6.41251 4.95 6.41251 8.025C6.41251 11.1 8.92501 13.65 12 13.65ZM12 3.75C14.3625 3.75 16.275 5.6625 16.275 8.025C16.275 10.3875 14.3625 12.3 12 12.3C9.63751 12.3 7.72501 10.3875 7.72501 8.025C7.72501 5.7 9.63751 3.75 12 3.75Z" fill="#163144"/>
<path d="M23.2875 20.4C20.175 17.7375 16.1625 16.275 12 16.275C7.8375 16.275 3.825 17.7375 0.712502 20.4C0.412502 20.625 0.375002 21.0375 0.637502 21.3375C0.862502 21.6 1.275 21.6375 1.575 21.4125C4.4625 18.975 8.175 17.625 12.0375 17.625C15.9 17.625 19.6125 18.975 22.5 21.4125C22.6125 21.525 22.7625 21.5625 22.9125 21.5625C23.1 21.5625 23.2875 21.4875 23.4 21.3375C23.625 21.0375 23.5875 20.625 23.2875 20.4Z" fill="#163144"/>
</svg>
