<svg viewBox="0 0 36 36" fill="none" xmlns="http://www.w3.org/2000/svg"><path d="M35.438 9.9c-.17 3.431-2.532 8.1-7.144 14.006-4.725 6.188-8.775 9.282-12.038 9.282-1.969 0-3.712-1.8-5.175-5.626-.956-3.375-1.8-6.862-2.812-10.35-1.013-3.712-2.138-5.624-3.431-5.624-.226 0-1.182.562-2.757 1.687l-1.518-2.25a381.544 381.544 0 0 0 5.175-4.613c2.306-1.968 3.937-3.037 5.174-3.093 2.7-.225 4.332 1.687 5.007 5.568.619 4.275 1.125 6.976 1.406 7.988.788 3.544 1.688 5.288 2.531 5.288.731 0 1.8-1.125 3.319-3.432 1.519-2.306 2.194-4.106 2.363-5.287.224-1.969-.62-3.038-2.363-3.038-.788 0-1.688.169-2.531.619 1.687-5.625 4.894-8.381 9.731-8.269 3.544.169 5.231 2.531 5.063 7.144Z" fill="#292723"/></svg>